<svg width="4912" height="4912" viewBox="0 0 4912 4912" fill="none" xmlns="http://www.w3.org/2000/svg">
<path opacity="0.8" d="M2179.6 2302.04C2150.16 2309.08 2065.82 2319.36 2032.07 2445.53C2012.39 2515.62 2058.73 2614.76 2118.97 2638.53C2179.22 2662.3 2261.3 2635.48 2317.03 2710.27C2374.42 2787.3 2442.66 2863.01 2546.4 2826.48C2650.15 2789.94 2673.17 2631.9 2660.59 2594.07C2648.01 2556.24 2619.53 2531.67 2650.48 2470.79C2680.8 2411.17 2768 2304.34 2723.23 2209.08C2678.47 2113.82 2559.56 2059.46 2460.02 2100.19C2360.48 2140.92 2339.28 2232.38 2295.81 2264.65C2252.33 2296.93 2209.04 2295.01 2179.6 2302.04Z" stroke="#E9FC7E"/>
<path opacity="0.6" d="M2159.17 2290.66C2127.55 2298.22 2036.97 2309.26 2000.73 2444.76C1979.59 2520.04 2029.35 2626.51 2094.05 2652.04C2158.75 2677.57 2246.91 2648.76 2306.75 2729.09C2368.39 2811.82 2441.68 2893.12 2553.1 2853.89C2664.51 2814.65 2689.24 2644.91 2675.73 2604.29C2662.22 2563.66 2631.63 2537.27 2664.87 2471.89C2697.43 2407.86 2791.08 2293.13 2743.01 2190.82C2694.93 2088.51 2567.23 2030.13 2460.33 2073.88C2353.42 2117.62 2330.66 2215.85 2283.96 2250.51C2237.27 2285.17 2190.78 2283.11 2159.17 2290.66Z" stroke="#F2FC7E"/>
<path opacity="0.6" d="M2122.18 2270.07C2086.63 2278.56 1984.76 2290.99 1944 2443.37C1920.22 2528.03 1976.19 2647.77 2048.96 2676.48C2121.72 2705.19 2220.86 2672.8 2288.17 2763.13C2357.49 2856.17 2439.91 2947.61 2565.21 2903.48C2690.51 2859.36 2718.31 2668.47 2703.12 2622.78C2687.93 2577.09 2653.53 2547.41 2690.92 2473.88C2727.53 2401.88 2832.85 2272.85 2778.79 2157.79C2724.72 2042.73 2581.11 1977.07 2460.88 2026.27C2340.65 2075.47 2315.05 2185.93 2262.54 2224.91C2210.03 2263.89 2157.74 2261.57 2122.18 2270.07Z" stroke="#E9FC7E"/>
<path opacity="0.4" d="M2007.35 2206.12C1959.56 2217.54 1822.64 2234.24 1767.85 2439.06C1735.89 2552.86 1811.12 2713.79 1908.93 2752.39C2006.73 2790.98 2139.99 2747.44 2230.45 2868.86C2323.62 2993.91 2434.4 3116.81 2602.83 3057.5C2771.25 2998.2 2808.62 2741.62 2788.19 2680.21C2767.77 2618.79 2721.54 2578.91 2771.79 2480.07C2821 2383.29 2962.57 2209.86 2889.9 2055.2C2817.23 1900.55 2624.19 1812.3 2462.59 1878.43C2300.99 1944.56 2266.58 2093.03 2196 2145.43C2125.42 2197.82 2055.14 2194.71 2007.35 2206.12Z" stroke="#DFFC7E"/>
<path opacity="0.4" d="M1717.35 2044.64C1638.66 2063.44 1413.21 2090.93 1323 2428.18C1270.38 2615.54 1394.25 2880.53 1555.29 2944.08C1716.32 3007.62 1935.74 2935.93 2084.69 3135.85C2238.1 3341.76 2420.51 3544.12 2697.82 3446.47C2975.13 3348.82 3036.66 2926.35 3003.04 2825.23C2969.41 2724.11 2893.28 2658.44 2976.03 2495.71C3057.06 2336.35 3290.15 2050.78 3170.5 1796.14C3050.85 1541.5 2733 1396.19 2466.92 1505.08C2200.83 1613.96 2144.18 1858.43 2027.97 1944.7C1911.75 2030.97 1796.04 2025.83 1717.35 2044.64Z" stroke="#CCFC7E"/>
<path opacity="0.4" d="M1113.14 1708.18C970.072 1742.36 560.183 1792.35 396.166 2405.51C300.505 2746.15 525.713 3227.93 818.49 3343.46C1111.27 3458.99 1510.19 3328.66 1781 3692.12C2059.92 4066.49 2391.55 4434.4 2895.74 4256.86C3399.93 4079.32 3511.79 3311.23 3450.66 3127.39C3389.52 2943.54 3251.11 2824.13 3401.55 2528.27C3548.87 2238.54 3972.67 1719.35 3755.12 1256.39C3537.58 793.424 2959.7 529.243 2475.93 727.2C1992.16 925.157 1889.16 1369.63 1677.87 1526.48C1466.59 1683.33 1256.2 1674 1113.14 1708.18Z" stroke="#CEFC7E"/>
</svg>
